<svg id="Layer_1" enable-background="new 0 0 140 140" height="512" viewBox="0 0 140 140" width="512" xmlns="http://www.w3.org/2000/svg"><g id="Report_Analysis"><g><g><g><g><g><path d="m46.3021965 97.135582s5.6907654 3.4362488 4.981617 5.4239655-5.317173 1.7694168-6.9823761.2038651c-1.3624268-1.2808914-4.8522224-4.5119247-4.8522224-4.5119247z" fill="#b0b8cf"/></g></g><g><g><path d="m26.151268 106.8699951c-1.9299927 1.2600098-5.2600098.7200317-5.6199951-1.9799805-.3699951-2.75.3099976-10.2399902.3099976-10.2399902l5.9899902 3.4799805s1.4800415 7.3500366-.6799927 8.7399902z" fill="#4c5c75"/></g></g><g><g><path d="m46.7212753 76.6700439v20.3999634c0 1.3300171-2.8300171 2.039978-5.0200195 1.8900146-1.3899536-.0900269-2.5299683-.5300293-2.5299683-1.3699951l-1.3900146-19.8400268c-3.5900269-4.0499878-5.7999878-13.6699829-7.4099731-21.2199707l6.7299804-.5300293 3.6799927-.289978c1.789978 5.1599731 4.4899902 13.7700195 5.9400024 20.9600219z" fill="#986ff9"/></g></g><g><g><path d="m46.7212753 76.6700439v20.3999634c0 1.3300171-2.8300171 2.039978-5.0200195 1.8900146-.2600098-.6400146-.4299927-1.3300171-.5100098-2.0100098-.2399902-2.0900269.2400513-4.1900024.7300415-6.2399902.4899902-2.039978 1-4.1300049.7999878-6.2200317-.1099854-1.1099854-.4099731-2.1900024-.6400146-3.2799683-1.2600098-5.9400024-.5100098-12.3599854-3.0599976-17.8599854-.6699829-1.460022-1.5700073-2.8300171-1.8999634-4.3900146-.1700439-.7999877-.2400512-1.9600219-.0200195-2.9600219l3.6799927-.289978c1.789978 5.1599731 4.4899902 13.7700195 5.9400024 20.9600219z" fill="#b28afd"/></g></g><g><g><path d="m32.4924469 78.8883743c-.1999512.0700073-5.4011765 19.2116623-5.4011765 19.2116623 0 .6399536-2.2299805.7099609-4.0999756.4499512-1.3500366-.1999512-2.5200195-.5699463-2.5200195-1.0299683.0800171-5.5200195 1.3300171-16.8099975 2.4699707-21.5300293-1-6.8399658-1.1599731-17.0699463-.4899902-20.8699951l5.8300171.4700317 6.2000122.4899902c.5 6.9099732.4785232 16.4038926-1.9888382 22.8083573z" fill="#b28afd"/></g></g><path d="m131.7912903 88.1199951-.0100098 1.0700073.0100098-.0100097v.3699951h-.0100098v1.0700073l.0100098-.0100097v.3700561l-.0100098.0099487-.0100097 1.0700074.0200195-.0199585v.3699951l-.0200195.0100097v1.0699463l.0200195-.0199585v.3800049l-.0200195.0099488-.0100098 1.0600585.0300293-.0100097v.3699951l-.0300293.0100098v1.0699463l.0300293-.0199585v.3699951l-.0300293.0100097v1.0700074l.0300293-.0200196v.3699951l-.0300293.0200196-.0099487 1.9699707-58.280037 33.8699951-41.4299926-23.9199829.039978-14.9799805 58.290039-33.8800049 41.4199906 23.9199829z" fill="#c9cee2"/><g><g><g><g><g><g><g><g><g enable-background="new"><g><g><g><path d="m131.795517 85.1421127-.0448304 14.9867249-58.2843627 33.8711624.0448303-14.9867249z" fill="#e9e7fc"/></g></g></g><g><g><g><path d="m73.5111542 119.0132751-.0448303 14.9867249-41.4266663-23.9177017.0448227-14.9867249z" fill="#dedffb"/></g></g></g><g><g><g><path d="m131.795517 85.1421127-58.2843628 33.8711624-41.4266739-23.9177017 58.2843704-33.8711662z" fill="#f3f1fc"/></g></g></g></g></g></g></g></g><g><g><g enable-background="new"><g><g><g><path d="m106.8785095 94.0298996-.3232727-.1879501-3.6049652-2.0825348-.3269958-.1879501-3.6049652-2.0825119-.3269882-.1879501-3.6049652-2.0825272-.3232727-.1841965-3.6049194-2.0825043-.3270874-.1879501-3.6048737-2.0825119-.3270798-.1879501-3.6049194-2.0825348-.3232727-.1841888-3.6049652-2.0825043-.3269882-.1879501-3.6049652-2.0825348-.3270416-.1879501-3.9281921-2.2667007-3.9056625 2.2667007-.3232727.1917114-3.5823898 2.0787735-.3232727.1879501-3.5786247 2.0825043-.3232727.1879578-3.5823898 2.0825043-.3232727.1879501-3.5823898 2.0787735-.3232727.1879501-3.5823441 2.0825043-.3233185.1879578-3.9056206 2.2704849 3.928196 2.2666931.327034.1879578 3.6049194 2.0825272.3270378.1879501 3.6049194 2.0825119.3233185.1879501 3.6049194 2.078743.3270378.1879578 3.6049194 2.0825272.327034.1879578 3.604969 2.0825043.3232269.1879501 3.6049652 2.0787735.327034.1879501 3.6049194 2.0825043.3270874.1879578 3.6048737 2.0825043.3233185.1879501 3.9319534 2.2667236 3.9056625-2.2667236.3195114-.1879501 3.5823898-2.0825043.3232727-.1879578 3.5823441-2.0825043.3233185-.1879501 3.5823898-2.0787735.3232269-.1917114 3.5786285-2.078743.3270798-.1879578 3.5786285-2.0825272.3269882-.1879578 3.9057083-2.2704544zm-.6503143 0-3.5786209 2.0825043-3.6049194-2.0825043 3.5786209-2.0825272zm-31.0422516-4.3529892 3.6049194 2.0825043-3.5786209 2.0825348-3.6049194-2.0825348zm-3.9057083 1.8945541-3.6048737-2.0825119 3.5823441-2.0787659 3.6049194 2.0787659zm7.8376694.3759079 3.6049194 2.0825272-3.5823441 2.0825043-3.6049652-2.0825043zm3.9281921 2.2704773 3.6049652 2.0787506-3.5786285 2.0825043-3.6049652-2.0825043zm.3270798-.1879501 3.5785828-2.0825272 3.6049194 2.0825272-3.5786285 2.078743zm-.3270798-.1879501-3.6049194-2.0825348 3.5823441-2.078743 3.6049652 2.078743zm-3.9281921-2.270485-3.6049652-2.0825119 3.5786209-2.0787659 3.6049652 2.0825348zm-3.9319611-2.270462-3.6049652-2.0787659 3.5786285-2.0825119 3.6049652 2.0825119zm-3.9282379-2.2667236-3.6049194-2.0825043 3.5786285-2.0787659 3.6049194 2.0787659zm-.327034.1879577-3.5786285 2.0825272-3.6049194-2.0825272 3.5786285-2.0825119zm-3.9056625 2.270485-3.5785828 2.078743-3.6049652-2.078743 3.5786285-2.0825348zm.327034.1841888 3.6049652 2.0825043-3.5823898 2.0825348-3.6049652-2.0825348zm3.9281921 2.270462 3.6049652 2.0825272-3.5786209 2.0825043-3.6049194-2.0825043zm3.9320068 2.2704773 3.6049194 2.0825119-3.5823898 2.078743-3.6049194-2.078743zm3.9282379 2.2667008 3.6048737 2.0825043-3.5785828 2.0825348-3.6049194-2.0825348zm3.9319535 2.270462 3.6049194 2.0825272-3.5823898 2.0825119-3.6049194-2.0825119zm.3232727-.1879578 3.5823441-2.0825043 3.6049652 2.0825043-3.5823898 2.0825348zm3.9056625-2.2704544 3.5823898-2.0787506 3.6011581 2.0825119-3.5786285 2.078743zm3.9056168-2.2667007 3.5823898-2.0825272 3.6012039 2.0825272-3.5786285 2.0825043zm-.3269882-.1879501-3.6049652-2.0825348 3.5823898-2.0825043 3.6049652 2.0825043zm-3.928238-2.270485-3.6049194-2.078743 3.5823898-2.0825348 3.6049194 2.0825348zm-3.931961-2.2667007-3.6049194-2.0825272 3.5823898-2.0825119 3.6048737 2.0825119zm-3.9319992-2.2704849-3.6049194-2.0825043 3.5823898-2.0825043 3.6049194 2.0825043zm-3.9281922-2.2704544-3.6049194-2.0787735 3.5823441-2.0825043 3.6049652 2.0825043zm-3.9319534-2.2667237-3.6049652-2.0825043 3.5823898-2.0825119 3.6049652 2.0825119zm-.3233185.1879502-3.5785828 2.0787735-3.6049194-2.0825119 3.5786285-2.0787659zm-3.9018554 2.2667236-3.5823898 2.0825043-3.604969-2.0825043 3.5823898-2.0825043zm-3.9056626 2.270462-3.5823898 2.0825272-3.6049232-2.0825272 3.5823898-2.0825119zm-3.9056663 2.270485-3.582386 2.078743-3.6049232-2.078743 3.5823441-2.0825348zm.3232765.1879501 3.6049194 2.0825043-3.5786285 2.0787735-3.6049194-2.0787735zm3.9319992 2.2667007 3.6011124 2.0825272-3.5785789 2.0825043-3.6049232-2.0825043zm3.9281921 2.2704773 3.6049194 2.0825119-3.5786209 2.078743-3.6049232-2.078743zm3.9319611 2.2704621 3.6049652 2.0825119-3.5823898 2.0787659-3.6049652-2.0787659zm3.9281921 2.2667007 3.6049652 2.0825272-3.5786285 2.0825119-3.6049652-2.0825119zm3.9319992 2.2704849 3.6049194 2.0825043-3.5823898 2.0787659-3.6049194-2.0787659zm3.9319535 2.2704544 3.6049194 2.0825119-3.5823822 2.0787659-3.6048813-2.0787659zm.3232727-.1879501 3.5823898-2.0825043 3.6049728 2.0825043-3.5823898 2.0787659zm3.9056625-2.270462 3.5823898-2.0825272 3.6049271 2.0825272-3.5823898 2.0825119zm3.9056625-2.270485 3.5786285-2.078743 3.6049194 2.0825119-3.5785751 2.0787659zm3.9056702-2.2666931 3.5785751-2.0825119 3.6049652 2.0825119-3.5786209 2.078743zm3.5560455-6.6234512 3.6049194 2.0825043-3.5823898 2.0825348-3.6048737-2.0825348zm-.327034-.1879578-3.5823898 2.0825119-3.6049194-2.0825119 3.5823898-2.0787659zm-7.5331573-4.3492279 3.6049652 2.0825119-3.5823898 2.0825272-3.6049652-2.0825272zm-3.9319611-2.2704544 3.6049652 2.0825043-3.5823898 2.0825043-3.6049652-2.0825043zm-.327034-.1879577-3.5823441 2.0825119-3.6049652-2.0825119 3.5823898-2.0787659zm-7.5331115-4.3492279 3.6048737 2.0825119-3.5823441 2.0825043-3.6049195-2.0825043zm-3.9319992-2.270485 3.6049194 2.0825348-3.5823898 2.0825043-3.6048737-2.0825043zm-3.9319611-2.2666931 3.6049194 2.078743-3.5823898 2.0825348-3.6049194-2.0825348zm-3.9056625 2.2666931 3.6049194 2.0825348-3.5823441 2.0825043-3.6049614-2.0825043zm-3.9056626 2.270485 3.6049194 2.0825119-3.5786247 2.0787659-3.6049194-2.0787659zm-3.9018974 2.270462 3.6049652 2.0787659-3.5823898 2.0825119-3.6049652-2.0825119zm-3.9056625 2.2667236 3.6049194 2.0825043-3.5823898 2.0825043-3.6048737-2.0825043zm-3.9056626 2.2704544 3.6049652 2.0825119-3.5823898 2.0825272-3.6049652-2.0825272zm-7.4842453 4.3492279 3.5786285-2.0787659 3.6048737 2.0787659-3.5785828 2.0825119zm7.5331612 4.3529969-3.604969-2.0825348 3.5823898-2.0825043 3.6049194 2.0825043zm.3269882.1879501 3.5823898-2.0825272 3.6049652 2.0825272-3.5823898 2.0825043zm7.5331574 4.349205-3.6049652-2.0825043 3.5823898-2.0787506 3.6049652 2.0787506zm3.9319572 2.2704849-3.6049194-2.0825348 3.5823898-2.078743 3.6049232 2.078743zm.3270836.1879502 3.5823441-2.0825272 3.6049194 2.0825272-3.5823898 2.0825119zm7.5331116 4.3492279-3.6049194-2.0825272 3.5823898-2.078743 3.6049194 2.078743zm3.9319992 2.270462-3.6049652-2.0825043 3.5823898-2.0787735 3.6049194 2.0787735zm.3269958.1879501 3.5823898-2.0825043 3.6049652 2.0825043-3.5823898 2.0825119zm7.5331574 4.349228-3.6012039-2.0787659 3.5786285-2.0825043 3.6049652 2.0787659zm3.9019012-2.266716-3.6011581-2.0825119 3.5823898-2.0787659 3.6011581 2.0787659zm3.9056625-2.2704621-3.6012039-2.0787659 3.5823898-2.0825119 3.6012039 2.0787735zm3.9056626-2.270462-3.6011581-2.0787659 3.5823441-2.0825043 3.6011581 2.078743zm3.9056625-2.2704849-3.6012039-2.078743 3.5786285-2.0787659 3.6011963 2.0787659zm3.9056168-2.2666932-3.6048737-2.0825348 3.5823441-2.078743 3.6011505 2.078743zm3.9057083-2.2704849-3.6049652-2.078743 3.5823898-2.0825119 3.6012039 2.0787506z" fill="#dedffb"/></g></g></g><g><g><g><path d="m90.2793884 62.504837-16.2136307 9.4218063 39.3046417 22.6934052 16.2136765-9.4218063zm-12.1426391 10.30896 10.735878-6.2400436 3.3343277 1.9283981-10.735878 6.2400208zm6.0709228 3.5071793 8.642067-5.0220871 3.3342285 1.9246292-8.6420593 5.0220947zm6.0708389 3.5072097 10.3599777-6.0220184 3.3342743 1.9246368-10.3599243 6.0220108zm6.0708848 3.5034409 5.837822-3.3944397 3.3342743 1.9246368-5.837822 3.3944321zm6.070877 3.5034408 10.7358856-6.2400436 3.3342285 1.9246292-10.7358322 6.2400436zm9.405159 5.4318314-3.3343201-1.9246521 8.6421051-5.025856 3.3342819 1.9246368z" fill="#fff"/></g></g></g></g></g><g opacity=".5"><g><g><g><path d="m95.0404129 105.4679413-11.8895187 6.9059295-39.6386872-22.8909454 23.8731003-13.6029587-3.959732 11.3462754h7.8358001l.041832 9.0790786 11.7432327-2.2880554.0208512 4.5551987h7.8358001l-3.8656082 6.7910232z" fill="#95d895"/></g></g></g></g></g><g><g><g><g><path d="m44.6610718 93.0640793-.9695702.5634537-2.6968384-1.5570221.9695702-.5634537z" fill="#c9cee2"/></g></g></g><g><g><g><path d="m43.6731644 95.4625168-.969574.5634537-4.2715912-2.4662018.969574-.5634537z" fill="#c9cee2"/></g></g></g><g><g><g><path d="m49.02005 95.5807419-.9695701.563446-3.6288071-2.0950927.9695702-.5634537z" fill="#c9cee2"/></g></g></g><g><g><g><path d="m39.5357437 96.0425949-.9695701.5634537-2.6968346-1.5570221.9695701-.5634537z" fill="#c9cee2"/></g></g></g><g><g><g><path d="m47.5874863 97.7224579-.969574.5634537-3.0080299-1.7366867.9695739-.5634537z" fill="#c9cee2"/></g></g></g><g><g><g><path d="m43.8947258 98.5592499-.9695702.5634537-3.6288108-2.0950928.9695739-.5634537z" fill="#c9cee2"/></g></g></g><g><g><g><path d="m55.9737968 99.5954895-.9695701.563446-6.3152924-3.6461334.9695702-.5634537z" fill="#c9cee2"/></g></g></g><g><g><g><path d="m51.8547478 100.1861572-.969574.5634537-3.6288109-2.0950928.969574-.5634536z" fill="#c9cee2"/></g></g></g><g><g><g><path d="m57.8444138 100.6754913-.9695702.5634461-.96064-.5546265.9695702-.563446z" fill="#c9cee2"/></g></g></g><g><g><g><path d="m50.8484726 102.5739975-.9695702.5634537-6.3152923-3.6461335.9695701-.5634536z" fill="#c9cee2"/></g></g></g><g><g><g><path d="m66.764183 105.8253174-.9695739.5634537-2.6968346-1.5570221.9695702-.5634537z" fill="#c9cee2"/></g></g></g><g><g><g><path d="m65.7762756 108.2237549-.9695739.5634537-4.2715912-2.4662018.9695739-.5634537z" fill="#c9cee2"/></g></g></g><g><g><g><path d="m72.7786407 109.2977676-.9695739.5634537-5.2842865-3.050888.9695739-.5634537z" fill="#c9cee2"/></g></g></g><g><g><g><path d="m69.6905975 110.4836884-.9695739.5634613-3.0043946-1.7345887.969574-.5634536z" fill="#c9cee2"/></g></g></g><g><g><g><path d="m65.9978409 111.320488-.969574.5634537-3.6288109-2.0950928.9695702-.5634537z" fill="#c9cee2"/></g></g></g><g><g><g><path d="m76.4251175 111.4030609-.969574.5634537-3.0080719-1.7367172.9695664-.5634537z" fill="#c9cee2"/></g></g></g><g><g><g><path d="m73.9578094 112.9473648-.9695739.5634613-3.6288147-2.0951004.969574-.5634537z" fill="#c9cee2"/></g></g></g><g><g><g><path d="m79.9474792 113.4366989-.9695739.5634537-2.6161118-1.5104218.9695664-.563446z" fill="#c9cee2"/></g></g></g><g><g><g><path d="m71.2997894 114.3815765-.9695663.5634537-4.6635513-2.6925049.9695663-.5634536z" fill="#c9cee2"/></g></g></g><g><g><g><path d="m77.384819 114.9259491-.9695739.5634613-2.6968384-1.5570221.969574-.5634537z" fill="#c9cee2"/></g></g></g><g><g><g><path d="m74.8221512 116.4152069-.9695664.5634537-2.6161193-1.5104141.9695739-.5634537z" fill="#c9cee2"/></g></g></g><g><g><g><path d="m61.638855 108.803833-.9695702.5634461-2.6968345-1.5570145.9695701-.5634537z" fill="#c9cee2"/></g></g></g><g><g><g><path d="m55.2817535 102.1647415-.9695739.5634537-2.6968346-1.5570145.969574-.5634536z" fill="#c9cee2"/></g></g></g><g><g><g><path d="m52.7190895 103.6539993-.9695702.5634537-.9606399-.5546265.9695702-.5634536z" fill="#c9cee2"/></g></g></g></g></g><g><g><g><g><path d="m93.3991318 105.6986084c-.0009766 0-.0019531 0-.003418 0l-6.3647461-.0830078c-.0883789-.0009766-.1694336-.0488281-.2133789-.1254883-.0439453-.0771484-.0444336-.1713867-.0004883-.2480469l3.652832-6.4223633h-7.4052734c-.1376953 0-.2495117-.1113281-.25-.2490234l-.019043-4.2490234-11.4458008 2.2285156c-.0717773.0151367-.1479492-.0043945-.206543-.0522461-.0576172-.0473633-.0908203-.1176758-.0913086-.1923828l-.0405273-8.8330078h-7.5859374c-.0810547 0-.1567383-.0390625-.2036133-.1054688-.0473633-.065918-.059082-.1503906-.0322266-.2270508l3.9624023-11.347168c.0449219-.1303711.1884766-.199707.3183594-.1533203.1303711.0454102.1992188.1879883.1533203.3183594l-3.8461914 11.0146484h7.4829102c.1376953 0 .2495117.1113281.25.2490234l.0400391 8.7797852 11.4458008-2.2285156c.0737305-.0131836.1484375.0053711.206543.0522461.0576172.0473633.0908203.1176758.0913086.1923828l.0195313 4.3022461h7.5859375c.0888672 0 .1713867.0473633.2163086.1245117.0444336.0766602.0449219.171875.0009766.2490234l-3.6557617 6.4277344 5.9414063.0776367c.1376953.0019531.2485352.1152344.246582.253418-.0019534.1367188-.1132815.2465821-.2500002.2465821z" fill="#50b069"/></g></g></g></g><g><g><g><path d="m92.2083893 68.5013885-10.7370758 6.239708-3.3360443-1.9260635 10.7370834-6.239708z" fill="#4c5c75"/></g></g></g><g><g><g><path d="m96.1845245 73.2223358-8.643547 5.0230866-3.3336334-1.924675 8.6435546-5.0230866z" fill="#dba660"/></g></g></g><g><g><g><path d="m105.5197983 81.8633194-5.8370819 3.3921356-3.3336335-1.9246673 5.837082-3.3921433z" fill="#ffd06c"/></g></g></g><g><g><g><path d="m103.9733963 75.7303619-10.3603439 6.0207749-3.333664-1.9246903 10.360344-6.0207748z" fill="#78e75a"/></g></g></g><g><g><g><path d="m116.4918747 82.5214615-10.7370834 6.2397079-3.3360367-1.9260635 10.7370758-6.239708z" fill="#f45170"/></g></g></g><g><g><g><path d="m120.4680099 87.2424164-8.6435546 5.0230789-3.333664-1.9246902 8.6435547-5.0230866z" fill="#57b3fe"/></g></g></g><g><g><path d="m67.3812866 76.9518356c-.3958664 0-.7641907-.0872345-1.0376282-.2463989-.2367096-.1372299-.3667908-.3076172-.3662796-.4795303 0-.1714096.1362076-.3484268.3739319-.4856567.274971-.1591644.6448212-.2463989 1.0406952-.2463989.39077 0 .7698059.0897827 1.0391617.2463989.236702.1377335.3673019.3081207.3673019.4800415-.0005112.1708984-.1362076.3474121-.3734283.4841232-.2764969.1596756-.6468582.2474212-1.0437546.2474212z" fill="#4c5c75"/></g></g><g><g><path d="m62.4114761 87.5168991c-.5010071-.2910843-.4760399-.6856842.0081635-.9651871.2749672-.1591644.6448212-.2463989 1.0406914-.2463989 1.0939674 0 1.9201088.6990128 1.0325279 1.2105637-.5702553.3299255-1.5157166.3302917-2.0813828.0010223z" fill="#4c5c75"/></g></g><g><g><path d="m70.9507599 87.9515381c-.395874 0-.7647018-.087738-1.0381393-.2463989-.2361984-.1377335-.3662872-.3081207-.3662872-.4800415.0005112-.1714096.1367188-.3479156.3744507-.4851456.2754745-.1591644.6453323-.2469101 1.0411987-.2469101 1.0953674 0 1.9185867.7001114 1.0320206 1.2110825-.2759858.1596755-.6463548.2474136-1.0432435.2474136z" fill="#4c5c75"/></g></g><g><g><path d="m70.2248306 96.5948944c-.4992981-.2894669-.4784927-.6845627.0076523-.9651871.2749634-.1591721.6448135-.2464066 1.0406876-.2464066.5167999 0 1.4064636.2336807 1.4064636.7264481-.0018234.6132431-1.5390244 1.0182114-2.4548035.4851456z" fill="#4c5c75"/></g></g><g><g><path d="m82.7661819 94.7573624c-.3963776 0-.765213-.0877457-1.0386505-.2469101-.2367096-.1372299-.3667908-.3076172-.3662796-.479538 0-.1714096.1362076-.3484268.3739319-.4851456.2754745-.1591644.6453323-.2469101 1.0417099-.2469101.3963852 0 .765213.0877457 1.038147.2463989.2372131.1377411.3673019.3081284.3673019.4800491-.0005112.171402-.1362076.3479156-.3734283.4846344-.2759857.1596757-.6463471.2474214-1.0427323.2474214z" fill="#4c5c75"/></g></g><g><g><path d="m82.3024597 99.0022583c-.5053635-.2936172-.4713287-.6889191.0081635-.9646759.5715103-.3302078 1.5147247-.3287277 2.0793457-.0005112.4970551.2886124.4833984.6825409-.0061188.9646759-.5694809.3294754-1.5139542.3308106-2.0813904.0005112z" fill="#4c5c75"/></g></g><g><g><path d="m90.7450027 99.2963181c-.3963776 0-.765213-.0877457-1.0386505-.2463989-.2361908-.1372299-.3662796-.3076172-.3662796-.4795303.0005112-.1714096.1367188-.3484344.3744431-.4856567.5700531-.329361 1.5127106-.3295822 2.0798569-.0005112.5017776.2913513.4764709.6862488-.0066299.9646759-.2759934.1596755-.6463548.2474212-1.04274.2474212z" fill="#4c5c75"/></g></g><g><g><path d="m87.1136246 106.0100937c-1.0967789 0-1.9166412-.700058-1.0304947-1.211586.2754822-.1591644.6453323-.2469101 1.0417175-.2469101 1.0983047 0 1.9158859.7013702 1.0315094 1.2110748-.2759933.1596756-.6463547.2474213-1.0427322.2474213z" fill="#4c5c75"/></g></g><g><g><path d="m93.9334259 106.1530075c-.395874 0-.7647095-.0877457-1.038147-.2463989-.236702-.1372299-.3662796-.3076172-.3662796-.4795303.0005112-.1719208.1367188-.3484268.3744431-.4856567.274971-.1591644.6448212-.2469101 1.0412064-.2469101.5239716 0 1.4054413.2386322 1.4054413.7269516-.0005112.1708984-.1367188.3474121-.3734283.4841309-.2759858.1596678-.6463472.2474135-1.0432359.2474135z" fill="#4c5c75"/></g></g></g><g><g><g><g><path d="m131.795517 86.317627-.0081635.3713226-58.2849426 33.8710785.0081634-.3685379z" fill="#c9cee2"/></g></g></g><g><g><g><path d="m73.5105743 120.1914902-.0081634.3685379-41.4179306-23.9126511.002491-.3745956z" fill="#b0b8cf"/></g></g></g></g><g><g><g><g><path d="m131.795517 87.7490845-.0081635.371315-58.2849426 33.8710785.0081634-.3685303z" fill="#c9cee2"/></g></g></g><g><g><g><path d="m73.5105743 121.6229477-.0081634.3685303-41.4179306-23.9126435.002491-.3745956z" fill="#b0b8cf"/></g></g></g></g><g><g><g><g><path d="m131.795517 89.1805344-.0081635.371315-58.2849426 33.8710861.0081634-.3685379z" fill="#c9cee2"/></g></g></g><g><g><g><path d="m73.5105743 123.0543976-.0081634.3685379-41.4179306-23.9126511.002491-.3745956z" fill="#b0b8cf"/></g></g></g></g><g><g><g><g><path d="m131.795517 90.6119843-.0081635.3713226-58.2849426 33.8710785.0081634-.3685379z" fill="#c9cee2"/></g></g></g><g><g><g><path d="m73.5105743 124.4858475-.0081634.3685379-41.4179306-23.9126511.002491-.3745956z" fill="#b0b8cf"/></g></g></g></g><g><g><g><g><path d="m131.795517 92.0434341-.0081635.3713227-58.2849426 33.8710785.0081634-.3685379z" fill="#c9cee2"/></g></g></g><g><g><g><path d="m73.5105743 125.9172974-.0081634.3685379-41.4179306-23.9126511.002491-.3745956z" fill="#b0b8cf"/></g></g></g></g><g><g><g><g><path d="m131.795517 93.474884-.0081635.3713227-58.2849426 33.8710785.0081634-.3685303z" fill="#c9cee2"/></g></g></g><g><g><g><path d="m73.5105743 127.3487549-.0081634.3685303-41.4179306-23.9126511.002491-.3745956z" fill="#b0b8cf"/></g></g></g></g><g><g><g><g><path d="m131.795517 94.9063416-.0081635.371315-58.2849426 33.8710861.0081634-.3685456z" fill="#c9cee2"/></g></g></g><g><g><g><path d="m73.5105743 128.7801971-.0081634.3685456-41.4179306-23.9126511.002491-.3745956z" fill="#b0b8cf"/></g></g></g></g><g><g><g><g><path d="m131.795517 96.3377914-.0081635.3713227-58.2849426 33.8710708.0081634-.3685302z" fill="#c9cee2"/></g></g></g><g><g><g><path d="m73.5105743 130.2116547-.0081634.3685302-41.4179306-23.9126434.002491-.3745956z" fill="#b0b8cf"/></g></g></g></g><g><g><g><g><path d="m131.795517 97.7692413-.0081635.3713227-58.2849426 33.8710785.0081634-.3685303z" fill="#c9cee2"/></g></g></g><g><g><g><path d="m73.5105743 131.6431122-.0081634.3685303-41.4179306-23.9126511.002491-.3745956z" fill="#b0b8cf"/></g></g></g></g></g><g><g><g><g><path d="m69.9267273 124.2294922-4.7132721 2.737236-.2409744-1.281784-2.2072945-.1350708 4.713337-2.7373581z" fill="#5094ff"/></g></g></g><g><g><g><path d="m55.3249702 117.2218323-3.9141349 2.2731399-.2001114-1.0644607-1.8330498-.1121674 3.9141846-2.2732391z" fill="#72d561"/></g></g></g><g><g><g><path d="m40.3779945 105.7447433-3.9141349 2.2731324-.2001114-1.0644532-1.8330498-.1121749 3.9141846-2.2732315z" fill="#e93565"/></g></g></g></g></g><g><g><g><path d="m72.4454803 58.7300415c-9.3201675-5.3843765-25.8674049-3.0971031-29.2199707 4.6499634.7399902 1.7399902 2.2799683 3.4000244 4.6400146 4.7600098 6.8199463 3.9400024 17.8899536 3.9400024 24.6699829 0 2.2999878-1.3300171 3.8099976-2.960022 4.5499878-4.6699829-.7499999-1.7399903-2.2899779-3.3900147-4.6400146-4.7399903z" fill="#fff"/></g></g></g><g><g><g><path d="m27.2712631 79.0599976c-.2000122 1.3099976-.4299927 2.6100464-.7600098 3.9000244-1 3.9299927-2.9499512 7.6900024-3 11.75-.0199585 1.1900024.1199951 2.4299927-.3499756 3.5200195-.0499878.1099854-.0999756.2199707-.1699829.3199463-1.3500366-.1999512-2.5200195-.5699463-2.5200195-1.0299683.0800171-5.5200195 1.3300171-16.8099975 2.4699707-21.5300293-1-6.8399658-1.1599731-17.0699463-.4899902-20.8699951l5.8300171.4700317c.1900024.8399658.2299805 1.7199707.2600098 2.5899658.2199707 6.9800416-.2000123 13.9800416-1.2700196 20.880005z" fill="#986ff9"/></g></g><g><g><path d="m42.11129 56.1900024s-10.0268097 6.0566864-20.1165447 1.5069771c0 0 .4965496-13.3569527.3765545-19.2569771-.0100098-.7699585-.0300294-1.4400024-.0700074-1.9400024-.0300293-.4299927-.1199951-.9500122-.2399902-1.5199585l-1.75-11.5800171c.5099487-.2700195 3.5099487-.7399902 5.4799805-.9299927 3.4400024-.3300171 15.5300293-1.2496719 16.1099854.1103134.8699951 2.039978-.6400146 8.5296402-.6400146 8.5296402l.1300049 3.7400513.5100098 15.0799561z" fill="#f45170"/></g></g><g><g><g enable-background="new"><g><g><path d="m41.901268 49.9299927-1.6400146-1.0899658c-1.3470764-5.99823-1.3033447-13.0401001-.0713501-20.7692871l1.1113892 6.5392456.0899658.2400513z" fill="#e93565"/></g></g><g><g><path d="m47.9217186 43.6500244c-.1599731 2.2699585-2.5504189 8.6599731-2.5504189 8.6599731l-2.7200317-1.6499634-.9699707-.5900269 1.0499878-8.5200195-1.1799927-7.2699585 3.6799927-.3200073 1.4500122-.1199951c0 .0000001 1.420475 7.3599854 1.2404213 9.8099976z" fill="#f4d6d4"/></g></g><g><g><path d="m47.9217186 43.6500244c-.1599731 2.2699585-2.5504189 8.6599731-2.5504189 8.6599731l-2.7200317-1.6499634c.1799927-.4800415.4199829-.9299927.6500244-1.3900146 1.0999756-2.1799926 2.4004555-4.3400268 2.6404457-6.7700195s-.6004677-4.9699707-.7704506-7.3999634c-.0200195-.3600464-.0400391-.7800293.0599976-1.1400146l1.4500122-.1199951s1.420475 7.3599853 1.2404213 9.8099975z" fill="#f5c9c6"/></g></g><g><g><g><path d="m47.9388657 53.3725777c-.4647675-.2677269-1.0989571-.225502-1.8035011.1831894-1.3949776.8031883-2.522316 2.7477341-2.522316 4.340004.0141068.8031044.2960243 1.3808784.7468567 1.6345024l-35.4085675-20.5779496c-.4508314-.2536278-.7327509-.831398-.7468557-1.6345901 0-1.5922699 1.1271648-3.5368156 2.5223169-4.340004.7045422-.4086037 1.3385611-.4508324 1.8034973-.1831017z" fill="#4c5c75"/></g></g></g><g><g><g><path d="m14.6263599 34.0127716c-.4647646-.2677307-1.0989552-.225502-1.8034983.1831856-1.3949795.8031921-2.5223169 2.7477341-2.5223169 4.3400078.0141048.8031006.2960253 1.3808746.7468567 1.6344986l-2.0960636-1.2181396c-.4508314-.2536278-.7327509-.831398-.7468557-1.6345901 0-1.5922699 1.1271648-3.5368156 2.5223169-4.340004.7045422-.4086037 1.3385611-.4508324 1.8034973-.1831017z" fill="#d4daea"/></g></g></g><g><g><g><path d="m45.9574471 53.3771515c1.403389-.8102455 2.5316162-.1673012 2.5361595 1.4350624.00457 1.6126709-1.1163025 3.5645294-2.5196915 4.3747749-1.3944778.8051033-2.5227394.151783-2.5273094-1.4608879-.0045433-1.6023636 1.1163597-3.5438461 2.5108414-4.3489494z" fill="#4c5c75"/></g></g></g></g></g></g><g><g><path d="m37.0812607 55.6099854c-.0899658.0600586-.1699829.1200562-.2600098.1700439-4.789978 3.0999756-9.0199585-2.4400024-9.0199585-2.4400024s-11.0900269-5.6199951-12.6799917-8.4800415c-1.1500244-2.0699463.2399902-9.6199951.2399902-9.6199951l1.1099844-.1900024 1.1599731-.1999512 3.7200317 1.9799805-.8900146 5.75s7.5200195 7.4199829 9.0200195 8.1400146c1.5.7099609 1.1199951-.8200073 2.6900024-1 1.5899658-.1799927-.0700073 1.5199585.2999878 2.4699707.3699951.9899902 2.7999878 1.7700195 3.8499756 2.3200073 1.2300416.6500244.7600099 1.0999756.7600099 1.0999756z" fill="#f4d6d4"/></g></g><g><g><path d="m36.8212509 55.7800293c-4.789978 3.0999756-9.0199585-2.4400024-9.0199585-2.4400024s-11.0900269-5.6199951-12.6799917-8.4800415c-1.1500244-2.0699463.2399902-9.6199951.2399902-9.6199951l1.1099844-.1900024c.5.4000244.1699829 1.5100098.1199951 2.0300293-.1300049 1.1900024-.1699829 2.3900146.0300293 3.5800171.1799927 1.0599976.5599976 2.0700073.9499512 3.0799561.3300171.8800049.6800537 1.7600098 1.210022 2.5300293 1.289978 1.8800049 3.4899902 2.8900146 5.6300049 3.6900024.8699951.3300171 1.75.6400146 2.539978 1.1199951 2 1.2299805 3.3099976 3.5200195 5.5400391 4.2700195 1.3800048.4599609 2.8899536.2399902 4.329956.4299926z" fill="#f5c9c6"/></g></g><g><g><path d="m20.1749878 23.4663601s-3.3473301 1.3183975-3.8920746 4.8289642c-.5447426 3.5105667-1.4542027 7.7065716-1.4542027 7.7065716-.1470966.4592171 6.573 1.6500511 6.7200603 1.1908569.6351547-2.8615875.9996185-5.6118965 2.0936832-8.1746559 1.8909132-3.5944862-.8424433-6.7218323-3.4674662-5.5517368z" fill="#f45170"/></g></g><g><path d="m79.9443588 61.6069336c.2684326-3.1425171-1.6517944-6.3401489-5.8004761-8.7353516-7.760437-4.4804688-20.3491821-4.482605-28.0592041-.0020752-3.8426514 2.2330933-5.7576904 5.1651611-5.75354 8.0993652 0-.0095215-.0022583-.019104-.0022583-.0286255l-.0137939 4.8760986c-.0084229 2.9625854 1.9420166 5.9297485 5.847229 8.1843872 7.760437 4.4805298 20.3491821 4.4782715 28.0592041-.0023193 3.8302002-2.2258301 5.7474976-5.1449585 5.7557983-8.0685425l.0137939-4.8760986c-.0005493.1846314-.0310058.3687135-.0467529.5531617zm-7.4046631 6.536438c-6.7803955 3.9403076-17.8503418 3.9403687-24.6751099.000061-2.3532104-1.3586426-3.8794556-3.0134277-4.6173096-4.7571411 3.3605995-7.8133774 19.9031334-10.0261078 29.1981201-4.6596069 2.3534546 1.3587646 3.8795776 3.0137329 4.6173096 4.7576904-.734558 1.7075806-2.2290038 3.3258667-4.5230102 4.6589966z" fill="#aa6256"/><g enable-background="new"><g><g><g><path d="m77.6014557 61.046978-.0138245 4.8760643c.0073853-2.6047554-1.7078781-5.2135353-5.1422501-7.1963692-10.9134445-6.3008804-29.7114258-1.8743973-29.7368584 7.0965309l.0138206-4.8760643c.0072937-2.5714188 1.693428-5.1389122 5.0618095-7.096405 6.7804031-3.9403381 17.8502846-3.9404106 24.6750526-.0001259 3.4343722 1.9828339 5.1496355 4.5916138 5.1422503 7.1963692z" fill="#aa6256"/></g></g></g><g><g><g><path d="m79.9911118 61.0537987-.0138321 4.8760719c-.0082779 2.9235687-1.9255676 5.8426895-5.7557449 8.0685425-7.7100296 4.4805756-20.2988243 4.4828186-28.0592575.0023346-3.9052048-2.2546768-5.855629-5.2218399-5.847229-8.1844177l.0138168-4.8760605c-.0083923 2.9625778 1.9420319 5.9297409 5.8472366 8.1844101 7.7604332 4.480484 20.3492279 4.4782486 28.0592575-.0023346 3.8301773-2.225853 5.7474594-5.1449738 5.7557526-8.0685463z" fill="#aa6256"/></g></g></g><g><g><g><path d="m74.1438675 52.8715897c7.7604294 4.4804878 7.801506 11.7701874.0914917 16.2507553-7.7100296 4.4805832-20.2988243 4.4828186-28.0592575.0023346s-7.8014832-11.7745781-.0914574-16.2551575c7.7100182-4.4805718 20.2987938-4.4784164 28.0592232.0020676zm-26.2793007 15.2718582c6.8247719 3.9402847 17.8947105 3.9402466 24.6751213-.0000992 6.7804031-3.9403381 6.7442856-10.3524551-.0804825-14.2927399s-17.8946495-3.9402122-24.6750526.0001259c-6.7804108 3.9403458-6.7443543 10.3524361.0804138 14.2927132" fill="#dba660"/></g></g></g></g></g><g><g><g><g><path d="m41.7766113 11.3720665s-.9209442.7669554-2.3598022 1.4104986c-1.7970657.8382025-4.3950272 1.4855614-6.9881096.2694521-1.8332062.8296289-1.0454941 4.3074818-1.0454941 4.3074818l-.734663-.1750603s-.613718-3.0863829-1.9077988-2.2492428c-1.3017998.8162298.2892265 4.0209446.2892265 4.0209446l-1.3463459 2.5377083s-2.9349098-10.4500418.3552876-12.319787c0 0 1.8377781-4.0805078 6.127676-2.9882874 4.3002625 1.0756182 5.059906 4.4577164 7.6100235 5.1862921z" fill="#8a4852"/></g></g><g><g><g><path d="m33.1997795 26.6696434c-3.0425053-.5598259-5.1612186-2.3715973-6.4507999-4.2861462l2.2804508-3.4250317s.3138199.4659138.8614311 1.0858612c.9542103 1.1251316 2.5840874 2.7810955 4.4090195 3.4758072.006424.0017662.172657.0750408.2047844.083868-.1256256.9595967-.6439095 2.4188214-1.3048859 3.0656415z" fill="#f5c9c6"/></g></g></g><g><g><path d="m29.0313072 18.9566746s.3111362.4607182.8653545 1.0910397c.944746 1.1185017 2.5783863 2.7705917 4.3960819 3.4700241.0162735.0038795.0449066.0278454.077404.0355892.5372505.1967583 1.096199.3385468 1.6571312.2917919 2.6849556-.236393 4.0953026-9.6160603 3.3921814-11.0636177-1.7986107.8428288-4.4000626 1.4856997-6.9875908.2677889l-.0081367-.0019388c-.076664.0332718-.1451416.0684938-.2094116.1219177-.2717934.1671925-.4758167.4106197-.6307392.7001438-.6927662 1.3210964-.2045841 3.4904881-.2045841 3.4904881l-.7316074-.1743336s-.6137924-3.0841579-1.9037781-2.2490072c-1.30233.8150119.2876949 4.0201139.2876949 4.0201139z" fill="#f4d6d4"/></g></g><g><g><path d="m32.4271736 13.0520372s-2.4713039-.7730017-4.386961-3.8779106c1.3405915 1.3284054 2.8107415 2.6187439 4.386961 3.8779106z" fill="#51383c"/></g></g></g></g><g><g><path d="m46.9312973 34.1400146c.0599976.4000244-6.0358276 1.4288712-6.0958862 1.0288467l-1.354126-13.2388687s6.0302315-.2865047 6.3658676 4.2445583z" fill="#f45170"/></g></g></g><g><g><g><g><g><g><g enable-background="new"><g><g><g><path d="m77.0812607 63.460022v.0100098c-.3499756.7999878-.8599854 1.5799561-1.5499878 2.3200073-.0700073.0799561-.1500244.1599731-.2299805.2399902-.7399902.7600098-1.6600342 1.4699707-2.7700195 2.1099853-.1300049.0700073-.2600098.1500244-.3900146.210022-.1099854.0700073-.2199707.1300049-.3299561.1799927-.4700317.25-.9700317.4799805-1.4800415.6799927-.0799561.039978-.1599731.0800171-.25.1099854-.0700073.0300293-.1499634.0599976-.2199707.0900269-.7600098.2999878-1.5599976.5499878-2.3900146.7699585-.1500244.0400391-.2999878.0800171-.460022.1100464-.8299561.2099609-1.6900024.3699951-2.5499878.5-.2700195.039978-.539978.0699463-.8200073.1099854-.8099976.0899658-1.6399536.1499634-2.4699707.1699829-.210022.0100098-.4100342.0200195-.6199951.0200195-1.3500366.0199585-2.710022-.0599976-4.0400391-.2300415-.1699829-.0199585-.3499756-.039978-.5199585-.0699463-1.7600098-.25-3.4700317-.6600342-5.0500488-1.2400513-.1399536-.039978-.2699585-.0899658-.3999634-.1499634l-.0499878.0299683-.25-.1499634c-.8400269-.3300171-1.6300049-.710022-2.3800049-1.1400146s-1.420044-.8900148-2-1.3900148c-.8400269-.6799927-1.5-1.4199829-2-2.1900024-.0700073-.0999756-.1300049-.1900024-.1700439-.289978-.1899414-.289978-.3399658-.5900269-.4699707-.8900146.25-.5800171.5900269-1.1499634 1.0300293-1.7000122.0599976-.0899658.1299438-.1799927.2099609-.2599487.7299805-.8800049 1.710022-1.710022 2.9199829-2.460022.1000366-.0700073.210022-.1300049.3200073-.1900024.1104279-.1104279 2.053669-1.1629028 3.9800415-1.7399902l.0299683-.1000366.0900269.0599976c.6078835-.2427063 3.1423035-.8961067 5.8899536-1.1300049.4100342-.0299683.8300171-.0499878 1.2400513-.0599976 2.1499634-.0899658 4.3299561.0599976 6.4099731.4400024.1699829.0300293.3300171.0599976.5.0900269.2700195.0599973.5300292.1099851.789978.1699827.4100342.1000366.8099976.2000122 1.210022.3200073.9299927.2700195 1.8300171.5800171 2.6900024.960022.1300049.0499878.25.0999756.3699951.1699829.539978.2299805 1.0499878.5 1.539978.7800293.7300415.4199829 1.3800049.8699951 1.960022 1.3599854.0900269.0599976.1799927.1300049.2700195.2199707.4099731.3500366.7699585.710022 1.0800171 1.0900269.1999512.2199707.3799438.4400024.5299683.6699829.2600098.3599854.4799805.7299805.6500244 1.1000366.0599976.0999755.0999756.1899414.1499634.289978z" fill="#f3f1fc"/></g></g></g></g></g></g></g></g><g><g><g enable-background="new"><g><g><g><path d="m77.085495 63.460022c-.0499878-.1000366-.0900269-.1900024-.1500244-.289978l-2.9599609 1.7199707-3.6000366-2.0800171 3.5800171-2.0799561 2.3300171 1.3399658c-.1500244-.2299805-.3300171-.4500122-.5300293-.6699829l-1.4799805-.8599854.4000244-.2300415c-.0900269-.0899658-.1800537-.1599731-.2700195-.2199707l-.4500122.2600098-3.6099854-2.0800171.5599976-.3200073c-.1199951-.0700073-.2399902-.1199951-.3699951-.1699829l-.5100098.2999878-2.1799927-1.2600098c-.4000245-.1199951-.7999878-.2199707-1.210022-.3200073l3.0599976 1.7700195-3.5799561 2.0800171-3.6100464-2.0800171 3.3400269-1.9400024c-.1699829-.0300293-.3300171-.0599976-.5-.0900269l-3.1600342 1.8400269-3.5999756-2.0800171.3499756-.2000122c-.4099731.0100098-.8299561.0300293-1.2399902.0599976l.2399902.1400146-3.5799561 2.0800171-2.1199951-1.2200317c-.1500244.0400391-.2900391.0800171-.4300537.1300049l2.2200317 1.2800293c-.100029.0581169-3.8151741 2.2166443-3.5800171 2.0800171-.1014214-.0584869-2.9120445-1.6792336-2.7399902-1.5800171-.1099854.0599976-.2199707.1199951-.3200073.1900024.1014252.0584869 2.9120445 1.6792336 2.7399902 1.5800171-.100029.0581169-3.8151131 2.2165833-3.5799561 2.0799561l-2.0800171-1.1999512c-.0800171.0799561-.1500244.1699829-.210022.2599487l1.960022 1.1300049-2.5200195 1.460022c.0400391.0999756.1000366.1900024.1700439.289978l2.6799928-1.5599976 3.5999756 2.0800171-3.5800171 2.0800171-.6999512-.4100342c.5799561.5 1.25.960022 2 1.3900146s1.539978.8099976 2.3799438 1.1400146l-3.3499756-1.9299927 3.5800171-2.0900269 3.5999756 2.0900269-3.5299683 2.0499878c.1300049.0599976.2599487.1099854.3999634.1499634l3.460022-2.0199585 2.6699829 1.5499878c0-.0100098.0100098 0 .0100098 0l.9199829.539978c-.1003036.0583878-2.1400223 1.2457275-2.0100098 1.1700439.1700439.0299683.3500366.0499878.5200195.0699463l1.2999878-.75s0 .0100098.0100098 0l.5100098-.3099976.5.2900391 1.7199707 1c.210022 0 .4100342-.0100098.6200562-.0200195l-1.9400024-1.1099854-.5800171-.3400269.1599731-.0899658.0100098-.0100098.7200317-.4199829 2.6900024-1.5700073 1.7199707.9899902 1.8900146 1.0999756-2.2000122 1.2800293c.2800293-.0400391.5499878-.0700073.8200073-.1099854l1.7000122-.9900513.8499756.4900513c.1600342-.0300293.3099976-.0700073.460022-.1100464l-.9800415-.5700073 2.75-1.5999756.8300171-.4799805.6300049.3599854 1.1099854.6400146c.1100464-.0499878.2200317-.1099854.3300171-.1799927l-1.1300049-.6500244-.6099854-.3499756.6099854-.3600464 2.960022-1.7299805 1.3299561.7700195c.0800171-.0800171.1600342-.1600342.2300415-.2399902l-1.2300415-.710022zm-7.0599976-5 3.5999756 2.0800171-3.5799561 2.0799561-3.6000366-2.0799561zm-.2999878 4.3499756-3.5800171 2.0800171-3.5999756-2.0800171 3.5700073-2.0799561zm-3.9299926-2.2699585-3.5800171 2.0799561-3.0100098-1.7399902-.5999756-.3399658.6099854-.3500366 2.9699707-1.7299805zm-6.9000244.539978 2.9899902 1.7299805-3.5800171 2.0800171-3.5999756-2.0800171c.2892685-.1680603 3.8046989-2.2104912 3.5800171-2.0799561zm-.6400147-4.8900147 3.6100464 2.0800171-2.9700317 1.7299805-.6099854.3500366-.8400269-.4800415-2.7699585-1.5999756zm-3.8999634 2.2700196 2.6900024 1.5499878.9099731.5300293c-.100029.0581169-3.8151779 2.2165833-3.5800171 2.0799561-.1001701-.0578766-3.83778-2.2173538-3.5999756-2.0799561.0000001 0 3.8151781-2.2166443 3.5800172-2.0800171zm-7.4899902 4.3499756c.1000328-.0581169 3.8151169-2.2165833 3.5799561-2.0799561.1002426.0577545 3.8479576 2.2170677 3.6099854 2.0799561l-3.5799561 2.0800171zm3.9299927 2.2700195 3.5799561-2.0900269 3.6100464 2.0900269-3.5800171 2.0800171zm8.4499511 3.8200073-.9099731.5299683-.0100098-.0099487-.9400024-.5300293-2.6599731-1.539978 3.5799561-2.0900269h.0100098l3.6000366 2.0900269zm-.6099853-3.8200073 3.5800171-2.0900269 3.5999756 2.0900269-3.5799561 2.0800171zm10.210022 2.789978-2.6799927 1.5599976-1.7300415-1-1.8699951-1.0799561 3.5800171-2.0900269 2.6900024 1.5599976.9099731.5300293-.1099854.0700073zm1.8599853-1.079956-.6300049.3699951-.8300171-.4800415h-.0099487l-2.7700195-1.5999756 3.5899658-2.0800171 3.6000366 2.0800171z" fill="#dedffb"/></g></g></g></g></g><g opacity=".5"><g><g><g><path d="m70.085495 69.3200073c-.8300171.3400269-1.7000122.6199951-2.6099854.8599854-.1500244.0400391-.2999878.0800171-.460022.1100464-.8300171.2099609-1.6900024.3699951-2.5499878.5-.2700195.039978-.539978.0699463-.8200073.1099854-.8099976.0899658-1.6400146.1499634-2.4699707.1699829-.210022.0100098-.4100342.0200195-.6200562.0200195-1.3499756.0199585-2.7099609-.0599976-4.039978-.2300415-.1699829-.0199585-.3499756-.039978-.5200195-.0699463-1.7599487-.25-3.4699707-.6600342-5.0499878-1.2400513-.1400146-.039978-.2699585-.0899658-.3999634-.1499634l-.0500488.0299683-.25-.1499634c-.8399658-.3300171-1.6299438-.710022-2.3799438-1.1400146s-1.4200439-.8900146-2-1.3900146c-.8400269-.6799927-1.5-1.4199829-2-2.1900024-.0700073-.0999756-.1300049-.1900024-.1700439-.289978-.1900024-.289978-.3399658-.5900269-.4699707-.8900146.25-.5800171.5899658-1.1499634 1.0299683-1.7000122.0599976-.0899658.1300049-.1799927.210022-.2599487.7299805-.8800049 1.710022-1.710022 2.9199829-2.460022.1000366-.0700073.210022-.1300049.3200073-.1900024.0200195-.0200195.039978-.0300293.0599976-.039978 1.1900024-.6900024 2.5100098-1.2600098 3.9199829-1.7000122l-.9099731 2.6099854s0 0-.0100098 0c-.0361481.1049576-.3461456 1.004982-.3099976.9000244h7.8300171v.7099606l.0199585 3.6400146.0100098.3699951.0100098 3.4400024.0100098.7299805v.1900024l.4799805-.0899658.0100098-.0100098.8699951-.1600342c0-.0099487 0-.0099487 0-.0099487l4.2600098-.8300171.4799805-.0900269c.1007996-.019577 5.5412064-1.0762177 5.2000122-1.0099487l.4400024-.0900269v.7199707z" fill="#95d895"/></g></g></g></g></g></g><g><g><g><g><g><path d="m70.3312607 69.210022c-.0799561.039978-.1599731.0800171-.25.1099854-.0700073.0300293-.1499634.0599976-.2199707.0900269-.0200195-.0300293-.0300293-.0599976-.0300293-.0900269l-.0100098-1.6799927-1.2599487.2399902-9.6400146 1.8800049c-.0200195.0100098-.0400391.0100098-.0599976.0200195l-.4800415.0899658c-.1399536 0-.3099976-.1099854-.3099976-.25l-.039978-8.8299561h-7.5800171c-.0799561 0-.1499634-.0400391-.1999512-.1100464-.0500488-.0599976-.0600586-.1499634-.0300293-.2299805l.3099976-.8900146c.0100098-.0199585.0200195-.0499878.0300293-.0599976l.8299561-2.3699951c.0900269-.039978.1900024-.0700073.2900391-.0999756l.0299683-.1000366.0900269.0599976c.0499878-.0199585.0999756-.039978.1599731-.0499878 0 .100502-.1897507.5694962-1.1499634 3.3500366h7.4699707c.1400146 0 .25.1099854.25.25l.039978 8.7799683.1500244-.0299683c.0200195-.0100098.039978-.0100098.0599976-.0200195l11.2399902-2.1900024c.0800171-.0100098.1500244.0100098.210022.0599976.0599976.039978.0899658.1099854.0899658.1900024z" fill="#50b069"/></g></g></g></g></g><g><g><path d="m49.4390602 60.8330841c-.5010071-.2910805-.4760399-.6856804.0081635-.9651909.566803-.3280945 1.5130119-.3296547 2.0793419 0 .4961128.2880669.4843788.6814728-.0061226.9641724-.2759858.1596756-1.5157166.3302879-2.0813828.0010185z" fill="#4c5c75"/></g></g><g><g><path d="m56.5739212 60.5412827c.0005112-.1714058.1367188-.3479156.3744431-.4851456.5715141-.3302078 1.5147247-.3287277 2.0793457-.0005112.4936867.2866592.4867096.6806412-.0061226.9646835-.9674454.5597229-2.4476662.1024781-2.4476662-.4790267z" fill="#4c5c75"/></g></g><g><g><path d="m56.8861275 69.4315491c0-.1714096.1362076-.3484344.3739357-.4856567.2749672-.1591644.6448212-.2463989 1.0406914-.2463989.39077 0 .7698059.0897827 1.0391617.2463989.2372169.1377335.3673019.3081207.3673019.4800415-.0005074.1714096-.1362076.3479156-.3734245.4846344-.9496461.5476684-2.4493828.0994186-2.4476662-.4790192z" fill="#4c5c75"/></g></g><g><g><path d="m69.7937698 68.0735474c-.3963852 0-.7652206-.0877457-1.0386505-.2469101-.5041199-.2922592-.4732819-.6880951.0076523-.9646835.5705566-.3296585 1.5142899-.329277 2.0798492-.0005112.497261.2887344.4826279.6829987-.0061188.9646835-.2759933.1596756-.6463546.2474213-1.0427322.2474213z" fill="#4c5c75"/></g></g></g></g><g><g><path d="m24.3214035 39.5732422-1.940155-1.12323-.0099487-.0100098c-.0100098-.7699585-.0300294-1.4400024-.0700074-1.9400024-.0300293-.4299927-.1199951-.9500122-.2399902-1.5199585l.0199585-.3700562 1.1000366-4.3799438c.733078 3.1143799 1.1131134 6.2288208 1.1401062 9.3432007z" fill="#e93565"/></g></g></g><g><g><path d="m24.0734482 100.8192139c-.7070313 0-1.4589844-.0805664-2.265625-.2412109-.1083984-.0219727-.1787109-.1269531-.1572266-.2353516s.1220703-.1806641.2353516-.1572266c1.5576172.3110352 2.8969727.3125 4.0952148.0024414.1044922-.0249023.215332.0371094.2436523.144043.0273438.1069336-.0371094.2158203-.144043.2436523-.630371.1621094-1.2963866.2436524-2.0073241.2436524z" fill="#fff"/></g></g><g><g><path d="m24.0573349 102.4261475c-.6235352 0-1.2861328-.0708008-1.9970703-.2124023-.1083984-.0219727-.1787109-.1269531-.1572266-.2353516s.1230469-.1787109.2353516-.1572266c1.3662109.2729492 2.5405273.2734375 3.590332.0024414.1044922-.0244141.215332.0371094.2436523.144043.0273438.1069336-.0371094.2158203-.144043.2436523-.5561523.1430664-1.1435546.2148438-1.770996.2148438z" fill="#fff"/></g></g><g><g><path d="m24.0426865 103.9085693c-.5498047 0-1.1337891-.0625-1.7602539-.1875-.1083984-.0219727-.1787109-.1269531-.1572266-.2353516s.1220703-.1796875.2353516-.1572266c1.1972656.2397461 2.2255859.2397461 3.1459961.0024414.1054688-.0268555.2158203.0366211.2436523.144043.0273438.1069336-.0371094.2158203-.144043.2436523-.4916992.126465-1.0102539.1899415-1.5634765.1899415z" fill="#fff"/></g></g></g></g></svg>